{"title":"linkin park iridescent 1080p","uid":6454186,"size":146992185,"categoryP":"video","categoryS":"music_videos","magnet":"?xt=urn:btih:06610a09d86de9e0881665d46b0ef9d9685f4983&amp;dn=linkin+park+iridescent+1080p&amp;tr=udp%3A%2F%2Ftracker.openbittorrent.com%3A80&amp;tr=udp%3A%2F%2Fopen.demonii.com%3A1337&amp;tr=udp%3A%2F%2Ftracker.coppersurfer.tk%3A6969&amp;tr=udp%3A%2F%2Fexodus.desync.com%3A6969","seeders":0,"leechers":0,"uploader":"ankygautam","files":1,"time":1307530439,"description":"General\nComplete name                    : Linkin Park - Iridescent 1080p.mp4\nFormat                           : MPEG-4\nFormat profile                   : Base Media / Version 2\nCodec ID                         : mp42\nFile size                        : 140 MiB\nDuration                         : 4mn 5s\nOverall bit rate                 : 4 796 Kbps\nEncoded date                     : UTC 2011-06-02 16:18:05\n\nVideo\nID                               : 1\nFormat                           : AVC\nFormat/Info                      : Advanced Video Codec\nFormat profile                   : &lt;a class=&quot;__cf_email__&quot; href=&quot;/cdn-cgi/l/email-protection&quot; data-cfemail=&quot;571f3e303f171b637967&quot;&gt;[email&amp;#160;protected]&lt;/a&gt;&lt;script cf-hash='f9e31' type=&quot;text/javascript&quot;&gt;\n/* &lt;![CDATA[ */!function(){try{var t=&quot;currentScript&quot;in document?document.currentScript:function(){for(var t=document.getElementsByTagName(&quot;script&quot;),e=t.length;e--;)if(t[e].getAttribute(&quot;cf-hash&quot;))return t[e]}();if(t&amp;&amp;t.previousSibling){var e,r,n,i,c=t.previousSibling,a=c.getAttribute(&quot;data-cfemail&quot;);if(a){for(e=&quot;&quot;,r=parseInt(a.substr(0,2),16),n=2;a.length-n;n+=2)i=parseInt(a.substr(n,2),16)^r,e+=String.fromCharCode(i);e=document.createTextNode(e),c.parentNode.replaceChild(e,c)}}}catch(u){}}();/* ]]&gt; */&lt;/script&gt;\nFormat settings, CABAC           : Yes\nFormat settings, ReFrames        : 1 frame\nCodec ID                         : avc1\nCodec ID/Info                    : Advanced Video Coding\nDuration                         : 4mn 5s\nBit rate mode                    : Variable\nBit rate                         : 4 642 Kbps\nMaximum bit rate                 : 9 892 Kbps\nWidth                            : 1 920 pixels\nHeight                           : 1 080 pixels\nDisplay aspect ratio             : 16:9\nFrame rate mode                  : Variable\nFrame rate                       : 23.976 fps\nMinimum frame rate               : 17.241 fps\nMaximum frame rate               : 24.390 fps\nResolution                       : 24 bits\nColorimetry                      : 4:2:0\nScan type                        : Progressive\nBits/(Pixel*Frame)               : 0.093\nStream size                      : 136 MiB (97%)\n\nAudio\nID                               : 2\nFormat                           : AAC\nFormat/Info                      : Advanced Audio Codec\nFormat version                   : Version 4\nFormat profile                   : LC\nFormat settings, SBR             : No\nCodec ID                         : 40\nDuration                         : 4mn 5s\nBit rate mode                    : Variable\nBit rate                         : 148 Kbps\nMaximum bit rate                 : 194 Kbps\nChannel(s)                       : 2 channels\nChannel positions                : L R\nSampling rate                    : 44.1 KHz\nResolution                       : 16 bits\nStream size                      : 4.32 MiB (3%)\n","torrent":{"xt":"urn:btih:06610a09d86de9e0881665d46b0ef9d9685f4983","amp;dn":"linkin+park+iridescent+1080p","amp;tr":["udp%3A%2F%2Ftracker.openbittorrent.com%3A80","udp%3A%2F%2Fopen.demonii.com%3A1337","udp%3A%2F%2Ftracker.coppersurfer.tk%3A6969","udp%3A%2F%2Fexodus.desync.com%3A6969"],"infoHash":"06610a09d86de9e0881665d46b0ef9d9685f4983","infoHashBuffer":{"type":"Buffer","data":[6,97,10,9,216,109,233,224,136,22,101,212,107,14,249,217,104,95,73,131]},"announce":[],"urlList":[]}}